<svg xmlns="http://www.w3.org/2000/svg" width="483.629" height="424.11" viewBox="0 0 483.629 424.11">
  <g id="Group_278" data-name="Group 278" transform="translate(-204.343 -55.588)">
    <path id="Path_8691" data-name="Path 8691" d="M581.252,229.342A129.225,129.225,0,1,1,452.025,100.117,129.226,129.226,0,0,1,581.252,229.342Z" transform="translate(106.72 40.116)" fill="#cbcfff" opacity="0.6"/>
    <path id="Path_8692" data-name="Path 8692" d="M434.294,182.453A65.26,65.26,0,1,1,347.9,149.99,65.259,65.259,0,0,1,434.294,182.453Z" transform="translate(94.816 79.778)" fill="#da97b8" opacity="0.3"/>
    <path id="Path_8693" data-name="Path 8693" d="M487.6,98.3a72.759,72.759,0,1,1-96.321-36.193A72.759,72.759,0,0,1,487.6,98.3Z" transform="translate(129.935 0)" fill="#da97b8" opacity="0.3"/>
    <path id="Path_8694" data-name="Path 8694" d="M516.115,164.974A152.044,152.044,0,1,1,314.834,89.341,152.049,152.049,0,0,1,516.115,164.974Z" transform="translate(19.128 18.134)" fill="#cae1fc" opacity="0.6"/>
    <path id="Path_8695" data-name="Path 8695" d="M345.641,238.525A70.649,70.649,0,1,1,275,167.87,70.642,70.642,0,0,1,345.641,238.525Z" transform="translate(0 101.155)" fill="#ffd7df" opacity="0.6"/>
    <path id="Path_8696" data-name="Path 8696" d="M501.817,264.326c0,3.072-24.1,5.566-53.836,5.566s-53.841-2.494-53.841-5.566,24.1-5.575,53.841-5.575S501.817,261.249,501.817,264.326Z" transform="translate(170.988 183.03)" fill="#da97b8" opacity="0.2"/>
    <path id="Path_8697" data-name="Path 8697" d="M497.715,264.144c0,2.462-65.509,4.473-146.339,4.473s-146.35-2.011-146.35-4.473,65.52-4.482,146.35-4.482S497.715,261.669,497.715,264.144Z" transform="translate(0.615 183.85)" fill="#a8bcff" opacity="0.3"/>
    <path id="Path_8698" data-name="Path 8698" d="M339.607,276.345c0,2.051-20.594,3.711-46,3.711S247.6,278.4,247.6,276.345s20.6-3.709,46.009-3.709S339.607,274.3,339.607,276.345Z" transform="translate(38.971 195.539)" fill="#da97b8" opacity="0.3"/>
    <path id="Path_8699" data-name="Path 8699" d="M428.337,278.51c0,1.935-19.349,3.5-43.213,3.5s-43.23-1.566-43.23-3.5,19.366-3.49,43.23-3.49S428.337,276.586,428.337,278.51Z" transform="translate(123.92 197.686)" fill="#a8bcff" opacity="0.3"/>
    <path id="Path_8700" data-name="Path 8700" d="M442.273,263.776c0,1.935-19.349,3.5-43.215,3.5s-43.228-1.566-43.228-3.5,19.366-3.492,43.228-3.492S442.273,261.848,442.273,263.776Z" transform="translate(136.474 184.411)" fill="#a8bcff" opacity="0.3"/>
    <path id="Path_8701" data-name="Path 8701" d="M397.606,275.442c0,1.935-19.349,3.5-43.215,3.5s-43.228-1.566-43.228-3.5,19.366-3.492,43.228-3.492S397.606,273.514,397.606,275.442Z" transform="translate(96.233 194.921)" fill="#da97b8" opacity="0.2"/>
    <g id="Group_256" data-name="Group 256" transform="translate(341.324 140.355)">
      <g id="Group_253" data-name="Group 253" transform="translate(6.136)">
        <path id="Path_8702" data-name="Path 8702" d="M281.042,109.688a.721.721,0,1,1-1.41,0v-2.821a.72.72,0,1,1,1.41,0Z" transform="translate(-279.632 -94.939)" fill="#5c75c3"/>
        <path id="Path_8703" data-name="Path 8703" d="M281.042,103.869a.721.721,0,1,1-1.41,0v-2.821a.72.72,0,1,1,1.41,0Z" transform="translate(-279.632 -100.181)" fill="#5c75c3"/>
      </g>
      <g id="Group_254" data-name="Group 254" transform="translate(0 3.588)">
        <path id="Path_8704" data-name="Path 8704" d="M285.069,106.526a.72.72,0,1,1-.705,1.22l-2.441-1.409a.72.72,0,1,1,.7-1.22Z" transform="translate(-271.866 -99.447)" fill="#5c75c3"/>
        <path id="Path_8705" data-name="Path 8705" d="M280.027,103.619a.72.72,0,1,1-.705,1.22l-2.443-1.409a.72.72,0,1,1,.7-1.222Z" transform="translate(-276.404 -102.069)" fill="#5c75c3"/>
      </g>
      <g id="Group_255" data-name="Group 255" transform="translate(0 3.588)">
        <path id="Path_8706" data-name="Path 8706" d="M284.364,102.208a.8.8,0,0,1,1.1.177.8.8,0,0,1-.4,1.046l-2.445,1.409a.72.72,0,1,1-.7-1.22Z" transform="translate(-271.866 -102.069)" fill="#5c75c3"/>
        <path id="Path_8707" data-name="Path 8707" d="M279.322,105.118a.72.72,0,1,1,.705,1.22l-2.445,1.409a.719.719,0,1,1-.7-1.22Z" transform="translate(-276.404 -99.447)" fill="#5c75c3"/>
      </g>
    </g>
    <g id="Group_258" data-name="Group 258" transform="translate(418.584 152.469)">
      <path id="Path_8708" data-name="Path 8708" d="M364.521,106.554H318.614a1.569,1.569,0,0,0-1.566,1.566v14.344a1.566,1.566,0,0,0,1.566,1.564h16.6l-9.708,29.945,16.4-29.945h22.611a1.566,1.566,0,0,0,1.566-1.564V108.12A1.569,1.569,0,0,0,364.521,106.554Z" transform="translate(-317.048 -106.554)" fill="#fff"/>
      <g id="Group_257" data-name="Group 257" transform="translate(4.902 3.762)">
        <path id="Path_8709" data-name="Path 8709" d="M326.282,116.089l-2.525-1.222-2.441,1.388.384-2.78-2.073-1.892,2.76-.491,1.162-2.558,1.322,2.474,2.787.316-1.944,2.02Z" transform="translate(-319.627 -108.533)" fill="#fa9a95"/>
        <path id="Path_8710" data-name="Path 8710" d="M331.688,116.089l-2.525-1.222-2.441,1.388.388-2.78-2.077-1.892,2.764-.491,1.158-2.558,1.325,2.474,2.783.316-1.938,2.02Z" transform="translate(-314.757 -108.533)" fill="#fa9a95"/>
        <path id="Path_8711" data-name="Path 8711" d="M337.092,116.089l-2.519-1.222-2.447,1.388.388-2.78-2.072-1.892,2.76-.491,1.16-2.558,1.322,2.474,2.788.316-1.944,2.02Z" transform="translate(-309.883 -108.533)" fill="#fa9a95"/>
        <path id="Path_8712" data-name="Path 8712" d="M342.5,116.089l-2.523-1.222-2.443,1.388.384-2.78-2.072-1.892,2.76-.491,1.16-2.558,1.32,2.474,2.79.316-1.944,2.02Z" transform="translate(-305.013 -108.533)" fill="#fa9a95"/>
      </g>
    </g>
    <g id="Group_265" data-name="Group 265" transform="translate(564.587 170.594)">
      <path id="Path_8713" data-name="Path 8713" d="M398.613,116.089h13.259a4.764,4.764,0,0,1,4.762,4.76v11.219a4.764,4.764,0,0,1-4.762,4.762h-4.2l5.558,8.788L402.78,136.83h-4.167a4.761,4.761,0,0,1-4.758-4.762V120.849A4.76,4.76,0,0,1,398.613,116.089Z" transform="translate(-393.855 -116.089)" fill="#a8bcff"/>
      <g id="Group_264" data-name="Group 264" transform="translate(6.617 6.267)">
        <g id="Group_260" data-name="Group 260" transform="translate(0.209 7.057)">
          <g id="Group_259" data-name="Group 259">
            <path id="Path_8714" data-name="Path 8714" d="M402.221,126.145a7.276,7.276,0,0,1-4.575-1.724.643.643,0,0,1,.884-.935c.148.141,3.521,3.188,7.714-.243a.643.643,0,0,1,.814,1A7.54,7.54,0,0,1,402.221,126.145Z" transform="translate(-397.446 -123.098)" fill="#fff"/>
          </g>
        </g>
        <g id="Group_263" data-name="Group 263">
          <g id="Group_261" data-name="Group 261">
            <path id="Path_8715" data-name="Path 8715" d="M400.121,120.99a1.406,1.406,0,1,1-1.393-1.6A1.51,1.51,0,0,1,400.121,120.99Z" transform="translate(-397.336 -119.386)" fill="#fff"/>
          </g>
          <g id="Group_262" data-name="Group 262" transform="translate(7.068)">
            <path id="Path_8716" data-name="Path 8716" d="M403.837,120.99a1.406,1.406,0,1,1-1.393-1.6A1.51,1.51,0,0,1,403.837,120.99Z" transform="translate(-401.054 -119.386)" fill="#fff"/>
          </g>
        </g>
      </g>
    </g>
    <g id="Group_266" data-name="Group 266" transform="translate(519.637 272.096)">
      <path id="Path_8717" data-name="Path 8717" d="M416.106,204.056c-2.656-2.549-7.874,9.331-8.8,14.012-1.068,5.387-.125,9.014,1.175,13.934,1.582,6,6.4,12.622-1.076,14.6-5,1.319-10.915-1.279-15.892-1.791-4.1-.412-8.027.361-9.016-3.469-2.205-8.546,10.278-16.926,3.192-23.735-6.109-6.387-3.889-17.768-2.8-23.516,4.224-5.57,8.311-2.827,9.457-10.639a50.569,50.569,0,0,1,5.862-1.049c.165,3.133,1.1,5.581,3.821,7.4,3.306,2.222,7.541-.371,10.388,1.572S416.7,200.95,416.106,204.056Z" transform="translate(-359.958 -157.848)" fill="#ecb49f"/>
      <path id="Path_8718" data-name="Path 8718" d="M384.328,188.19c3.882-1.082,5.372,3.832,6.376,9.449,1.106,6.2,2.1,13.593,2.1,13.593-1.065,3.433-2.3,8.318-3.368,11.749-1.475,4.748-4.627,8.98-5.756,13.84-.523,2.251,1.228,5.511-1.946,6.511-4.69,1.479-2.608-2.771-2.169-4.748q.881-3.983,1.713-7.974c1.213-5.819,2.471-11.643,3.507-17.5C384.787,213.111,379.115,189.641,384.328,188.19Z" transform="translate(-362.533 -152.77)" fill="#ecb49f"/>
      <path id="Path_8719" data-name="Path 8719" d="M383.633,188.19c3.882-1.082,5.372,3.832,6.376,9.449,1.106,6.2,2.1,13.593,2.1,13.593-1.065,3.433-2.3,8.318-3.368,11.749-.255.819-4.775,11.141-4.412,11.246-2.7-.8-4.832-1.648-4.832-1.648s2.072-6.741,2.505-8.892c.717-3.52,1.458-7.041,2.087-10.577C384.093,213.111,378.42,189.641,383.633,188.19Z" transform="translate(-361.838 -152.77)" fill="#2a2b7c"/>
      <path id="Path_8720" data-name="Path 8720" d="M416.578,200.58c-2.068-.023-7.874,9.332-8.8,14.012-1.068,5.387,1.6,9.527,2.9,14.449.481,1.827,1.5,4.256-.72,5.169a16.443,16.443,0,0,1-4.161.669,75.3,75.3,0,0,1-17.7-1.045c-.688-.15-4.572.07-4.442-.825.378-2.646-.093-5.11,1.31-7.083a11.539,11.539,0,0,0,2.526-6.763c-.053-2.178-2.7-5.074-5.421-10.71s.962-16.112.148-17.7c-1.62-2.825,3.9-2.988,5.632-3.981-1.852,6.07-2.2,7.433,4.03,8.151s10.976-10.128,18.068-8.5C415.464,187.7,417.512,195.7,416.578,200.58Z" transform="translate(-360.43 -154.373)" fill="#2a2b7c"/>
      <path id="Path_8721" data-name="Path 8721" d="M393.922,183.08c-.021-.224-.048-.443-.061-.677A50.573,50.573,0,0,0,388,183.452a9.521,9.521,0,0,1-1.587,4.21C389.136,188.421,392,186.353,393.922,183.08Z" transform="translate(-355.611 -157.848)" fill="#ecb49f" style="mix-blend-mode: multiply;isolation: isolate"/>
      <path id="Path_8722" data-name="Path 8722" d="M385.358,174.124c-1.593,5.024-.66,12.825,1.8,17.291,3.5,6.364,8.782,3.378,11.284-2.1,2.072-4.517,3.578-13.707-.736-17.427a10.008,10.008,0,0,0-8.121-1.477c-4.163,1.376-3.785,4.178-3.8,7.934Z" transform="translate(-357.271 -168.938)" fill="#ecb49f"/>
      <path id="Path_8723" data-name="Path 8723" d="M398.637,170.294a12.183,12.183,0,0,1,6.267,9.946c.207,4.939-1.616,8.659-6.723,11.111,1.509-1.992,1.205-4.748.205-6.743-1.156-2.31-1.791-3.433-1.021-6.332-1.561,3.971-5.754,1.6-8.583,3.268-2.593,1.53-2.971,4.239-2.04,6.743-4.45-5.515-5.055-10.042-.715-15.62C388.4,169.616,395.326,168.618,398.637,170.294Z" transform="translate(-358.62 -169.486)" fill="#2e3054"/>
      <path id="Path_8724" data-name="Path 8724" d="M389.6,255.193l-4.785-1c-.181,1.114-.38,2.215-.61,3.281-1.391,6.615-9.216,8.455-9.145,10.662s13.426-3.182,13.426-3.182S389.283,256.014,389.6,255.193Z" transform="translate(-365.842 -93.173)" fill="#f5b29c"/>
      <path id="Path_8725" data-name="Path 8725" d="M398.963,256.1l-4.011-1.848c-.348,1.16-.382,3.657-.58,4.809-1.26,7.37-7.6,7.263-7.8,9.235-.232,2.355,12.571-2.085,12.571-2.085S398.512,256.932,398.963,256.1Z" transform="translate(-355.469 -93.12)" fill="#f5b29c"/>
      <path id="Path_8726" data-name="Path 8726" d="M383.221,217.574l-4.047,83.872,7.221-.228,9.2-66.781,4.5,68.3,5.36.384s16.523-65.864,5.419-96.731c0,0-11.668,4.041-23.792,1.68A14.974,14.974,0,0,0,383.221,217.574Z" transform="translate(-362.132 -136.236)" fill="#0b1238"/>
      <path id="Path_8727" data-name="Path 8727" d="M438.017,223.172l-13.211,7.166a13.214,13.214,0,0,0-6.121,9.124L417.107,254.4c-.38,3.384-2.7,4.239-5.17,1.9l-10.892-10.36a13.159,13.159,0,0,0-10.569-2.984l-14.713,3.1a4.377,4.377,0,0,1-2.566-.1c-1.426-.551-1.825-2.129-.817-4.239l2.718-5.7,3.764-7.851a13.359,13.359,0,0,0,.684-7.927,10.608,10.608,0,0,0-1.1-3.06l-.437-.76-7.071-12.261c-1.692-2.946-.323-5,3.061-4.562l14.9,1.977a13.283,13.283,0,0,0,10.322-3.783l10.056-11.158c2.3-2.528,4.676-1.863,5.284,1.5l2,10.74.7,3.783.038.247a13.175,13.175,0,0,0,3.954,6.71,11.069,11.069,0,0,0,2.832,1.939l9.467,4.22,4.256,1.9C440.925,219.066,441.02,221.537,438.017,223.172Z" transform="translate(-370.208 -155.416)" fill="#fa7071"/>
      <path id="Path_8728" data-name="Path 8728" d="M432.786,204.159c-16.918,16.006-47.5,26.346-60.354,30.186-1.426-.551-1.825-2.129-.817-4.239l2.718-5.7c17.412-6.1,35.68-18.591,46.154-26.4a11.066,11.066,0,0,0,2.832,1.939Z" transform="translate(-369.446 -143.797)" fill="#fff" opacity="0.15"/>
      <path id="Path_8729" data-name="Path 8729" d="M412.86,192.35c-12.394,7.318-26.5,13.211-38.55,17.545l.437.76a10.61,10.61,0,0,1,1.1,3.06c14.314-3.973,27.259-10.759,37.714-17.583Z" transform="translate(-366.513 -148.887)" fill="#fff" opacity="0.15"/>
      <path id="Path_8730" data-name="Path 8730" d="M407.51,200.471c1.9,3.75,7.339,9.2,6.522,13.327-1.131,5.745-6.254,10.2-10.442,13.875a17.789,17.789,0,0,0-4.661,8.014c-.325,1.065-1,5.5-2.9,3.585-4.634-4.657,2.452-11.221,5.056-14.43a60.311,60.311,0,0,0,6.284-9.938,35.156,35.156,0,0,0-3.608-6.94c-3.11-4.556-6.893-8.794-7.075-14.538-.061-1.922.57-6.9,3.825-6.087C403.064,187.974,406.242,197.958,407.51,200.471Z" transform="translate(-348.329 -153.482)" fill="#ecb49f"/>
      <path id="Path_8731" data-name="Path 8731" d="M406.473,200.471c1.9,3.75,7.339,9.2,6.522,13.327-1.171,5.948-6.575,10.025-10.451,14.245-.517-1.416-1.734-1.768-2.76-2.629a121.024,121.024,0,0,0,6.551-10.51,35.154,35.154,0,0,0-3.608-6.94c-3.11-4.556-6.893-8.794-7.075-14.538-.061-1.922.57-6.9,3.825-6.087C402.026,187.974,405.2,197.958,406.473,200.471Z" transform="translate(-347.291 -153.482)" fill="#2a2b7c"/>
      <path id="Path_8732" data-name="Path 8732" d="M388.731,258.464c-.108.055-.211.1-.325.154-7.7,4.275-8.341,2.152-8.305,1.2-2.477,2.032-5.087,3.192-5.045,4.475.068,2.207,13.426-3.182,13.426-3.182S388.585,259.966,388.731,258.464Z" transform="translate(-365.842 -89.325)" fill="#2e3054"/>
      <path id="Path_8733" data-name="Path 8733" d="M398.9,259.132c-3.395,1.9-3,1.954-5.961,2.418s-1.637-.935-1.678-1.1c-2.315,1.547-4.549,2.078-4.686,3.45-.232,2.355,12.571-2.085,12.571-2.085S399.109,261.029,398.9,259.132Z" transform="translate(-355.469 -88.723)" fill="#2e3054"/>
      <path id="Path_8734" data-name="Path 8734" d="M378.709,218.372c.352-1.306,2.42-4.788,3.975-5.054,2.667-.456.553,3.562.559,5.191Z" transform="translate(-362.55 -130.03)" fill="#ecb49f"/>
    </g>
    <path id="Path_8735" data-name="Path 8735" d="M360.255,74.916A13.519,13.519,0,1,1,346.738,61.4,13.518,13.518,0,0,1,360.255,74.916Z" transform="translate(116.103 5.233)" fill="#a8bcff"/>
    <path id="Path_8736" data-name="Path 8736" d="M432.841,97.061a25.927,25.927,0,1,1-25.925-25.926A25.926,25.926,0,0,1,432.841,97.061Z" transform="translate(159.138 14.006)" fill="#fff" opacity="0.3"/>
    <path id="Path_8737" data-name="Path 8737" d="M370.179,116.561A22.284,22.284,0,1,1,347.9,94.277,22.281,22.281,0,0,1,370.179,116.561Z" transform="translate(109.25 34.855)" fill="#fff" opacity="0.3"/>
    <path id="Path_8738" data-name="Path 8738" d="M297.055,172A33.056,33.056,0,1,1,264,138.944,33.052,33.052,0,0,1,297.055,172Z" transform="translate(23.965 75.095)" fill="#fff" opacity="0.3"/>
    <g id="Group_267" data-name="Group 267" transform="translate(230.868 434.747)">
      <path id="Path_8739" data-name="Path 8739" d="M251.439,278.005c0,1.27-6.436,2.3-14.378,2.3s-14.375-1.032-14.375-2.3,6.436-2.3,14.375-2.3S251.439,276.737,251.439,278.005Z" transform="translate(-214.342 -236.444)" fill="#a8bcff" opacity="0.3"/>
      <path id="Path_8740" data-name="Path 8740" d="M233.377,288.487c4.254-.032,14.407-.424,12.881-7.18-1.192.055-2.884-.43-4.026-.2,7.06-2.8,6.971-10.073,6.619-16.945-3.131,2.055-6.942,6.379-7.8,10.259-3.777-3.654-4.771,1.443-5.714,4.613-1.317,4.433-2.3,7.241-6.626,9.963Z" transform="translate(-208.915 -246.838)" fill="#ffc5c0"/>
      <path id="Path_8741" data-name="Path 8741" d="M234.175,297.173c-1.131-.373,4.815-15.968,4.823-17.46.019-6.893-3.9-8.305-5.2-.84,1.593-6.56.241-19.825-5.821-23.822-3.612,3.005-3.093,9.571-2.081,13.852C227.092,274,229.693,295.689,234.175,297.173Z" transform="translate(-212.126 -255.051)" fill="#9dafe2"/>
      <path id="Path_8742" data-name="Path 8742" d="M238.325,285.312c-3.522-10.818-5.207-21.832-20.018-20.611-.274,5.159,5.066,7.79,9.164,9.4-3.252-.477-5.8,1.184-3.946,3.994,1.388,2.108,6.581,2.192,8.71,2.6-5.184,3.26,3.984,6.589,6.682,6.98Z" transform="translate(-218.297 -246.441)" fill="#2a2b7c"/>
    </g>
    <g id="Group_268" data-name="Group 268" transform="translate(252.591 258.625)">
      <path id="Path_8743" data-name="Path 8743" d="M268.188,257.6c.24,3.866,6.381,5.48,8.284,8.488-1.979.81-8.911.449-10.835-.882-2.646-1.829-.675-6.452-3.747-9.1Z" transform="translate(-200.747 -77.975)" fill="#2e3054"/>
      <path id="Path_8744" data-name="Path 8744" d="M247.821,257.792c-.2,3.005.829,5.946.66,9.043-4.568.633-8.4,1.523-13.1,1.281,1.091-2.832,3.507-3.361,6.018-5.053,4.051-2.724,2.112-4.613,3.568-8.508Z" transform="translate(-224.629 -79.375)" fill="#2e3054"/>
      <path id="Path_8745" data-name="Path 8745" d="M250.741,170.756s-.483,11.132-1.777,13.276c-1.677,2.789-5.212,1.127-6,4.7-.494,2.232.861,5.25,2.042,7.071,3.579,5.543,10,4.8,15.9,5.828,3.366.587,7.02-.916,8.121-4.425.857-2.779.061-7.6-1.9-9.856-1.18-1.367-3.351-1.707-4.7-2.935-.021-.017-3.621-3.323-3.366-7.853S253.26,168.229,250.741,170.756Z" transform="translate(-217.891 -155.599)" fill="#ecb49f"/>
      <path id="Path_8746" data-name="Path 8746" d="M275.167,200.965l15.878,107.583-7.809.259L258.958,236.54l-12.274,73.81-7.254-.515s-.561-48.863-.281-64.036-.555-36.262,5.86-45.26C245.01,200.539,266.254,206.023,275.167,200.965Z" transform="translate(-221.305 -128.038)" fill="#3d4166"/>
      <path id="Path_8747" data-name="Path 8747" d="M256.7,180.967a5.9,5.9,0,0,1-4.328,2.355,6.892,6.892,0,0,1-5.853-2.49c.658-4.034.924-10.1.924-10.1a2.837,2.837,0,0,1,2.044-.76,8.356,8.356,0,0,1,3.8,1.544,6.289,6.289,0,0,1,2.484,5.02A9.121,9.121,0,0,0,256.7,180.967Z" transform="translate(-214.594 -155.576)" fill="#ecb49f" style="mix-blend-mode: multiply;isolation: isolate"/>
      <path id="Path_8748" data-name="Path 8748" d="M259.8,169.412s4.874,14.4-1.026,16.985-9.617-4.838-12.21-10.284c-2.9-6.1-3.112-8.208,3.747-11.31C256.917,161.806,259.8,169.412,259.8,169.412Z" transform="translate(-216.274 -160.863)" fill="#ecb49f"/>
      <path id="Path_8749" data-name="Path 8749" d="M258.153,225.485c-.335-.042-.669-.1-1.011-.167a77.313,77.313,0,0,1-8.993-2.407c-3.2-1.066-4.574-1.637-5.037-5.275-.355-2.775-.344-5.665-.644-8.469a59.36,59.36,0,0,0-1.933-9.029c-1.667-6.5-.694-12.725,1.46-19.085.49-1.433.517-3.22,2.241-3.718.933-.268,2.14-.821,2.981-.62a25.027,25.027,0,0,0,5.285.65l6.708,34.412s7.191-30.31,5.743-34.184c.293.774,7.725-.578,8.59-.686,2.213-.276,4.406.03,5.326,1.85a17.92,17.92,0,0,1,1.464,10.282,109.024,109.024,0,0,1-1.988,11.1c-.787,3.1.249,6.429-.093,9.712-.466,4.416-1.572,8.645-1.971,13.078C269.942,222.366,264.627,226.3,258.153,225.485Z" transform="translate(-220.747 -149.54)" fill="#bfd4f8"/>
      <path id="Path_8750" data-name="Path 8750" d="M257.766,208.9l-6.077,3.914,2.4.207s-4.591,6.214-3.994,7.712.791,2,3.488,1.5,5.615-9.162,8.913-11.052C262.492,211.188,261.34,208.873,257.766,208.9Z" transform="translate(-211.426 -120.503)" fill="#ecb49f"/>
      <path id="Path_8751" data-name="Path 8751" d="M263.646,177.113s3.946-.357,6.665,10.284,3,30.624,3,30.624l-15.538,23.721-4.353-3.207,11.046-19.948S258.215,186.963,263.646,177.113Z" transform="translate(-208.377 -149.144)" fill="#9dafe2"/>
      <path id="Path_8752" data-name="Path 8752" d="M254.693,191.914c-2.258-.838-4.988.432-6.857,2.348-.61.627-1.882,1.914-1.815,3.135.07,1.135,1.534,2.583,2,3.366,1.139-1.122,1.882-2.562,3.332-3.211a11.307,11.307,0,0,0,3.616-2.125Z" transform="translate(-215.046 -136.046)" fill="#ecb49f"/>
      <path id="Path_8753" data-name="Path 8753" d="M259.539,178.721l-1.829-2.237-5.06,3.742-5.942-3.961-.637,2.077,5.92,42.162,3.3-.662Z" transform="translate(-214.998 -149.908)" fill="#bfd4f8"/>
      <path id="Path_8754" data-name="Path 8754" d="M251.009,178.348l1.426,3.025-.824,1.82,3.635,32.185-3.3,7.431-4.294-7.262,2.476-32.686-.33-1.489Z" transform="translate(-213.576 -148.03)" fill="#2a2b7c"/>
      <path id="Path_8755" data-name="Path 8755" d="M255.613,163.218a3.332,3.332,0,0,0,1.3.612c.357.051.852-.462,1.258-.46a5.826,5.826,0,0,1,2.758.295c6.2,3.013,2.65,10.383-2.568,11.8-2.431.663-4.94-.911-7.307.049.859,2.209.03,4.469-2.562,4.809-6.592.874-7.368-9.927-4.336-13.483,1.912-2.239,7.463-5.258,10.335-4.239A5.329,5.329,0,0,1,255.613,163.218Z" transform="translate(-218.254 -162.399)" fill="#2e3054"/>
      <path id="Path_8756" data-name="Path 8756" d="M242.576,199.446c1.487.432,3.194.69,4.669.988,2.348.481,4.714.857,7.088,1.161a59.144,59.144,0,0,0,10.109.517,36.07,36.07,0,0,0,8.948-1.918c.133,1.257-.283,2.838-.26,4.193-2.095.042-4.087.808-6.157,1.1a62.062,62.062,0,0,1-8.7.662c-3.9,0-7.685-1.122-11.432-2.085-1.184-.3-3.882-.382-4.792-1.213-.644-.6.008-3.564-.207-3.64C242.078,199.3,242.321,199.373,242.576,199.446Z" transform="translate(-218.891 -129.235)" fill="#2e3054"/>
      <path id="Path_8757" data-name="Path 8757" d="M249.532,178.348l1.207,3.025,5.283-2.474-5.938,3.3Z" transform="translate(-211.88 -148.03)" fill="#9dafe2"/>
      <path id="Path_8758" data-name="Path 8758" d="M252.495,178.348l-1.212,3.025L246,178.9l5.942,3.3Z" transform="translate(-215.062 -148.03)" fill="#9dafe2"/>
      <path id="Path_8759" data-name="Path 8759" d="M293.092,216.715l-12.565,6.463a12.484,12.484,0,0,0-5.95,8.459l-1.806,14.029c-.4,3.193-2.6,3.954-4.885,1.692l-10.037-9.98a12.453,12.453,0,0,0-9.9-3.022l-.285.057-13.61,2.547c-3.156.608-4.543-1.255-3.1-4.125l1.122-2.243,5.246-10.379a11.37,11.37,0,0,0,1.007-5.494,11.578,11.578,0,0,0-.836-4.144c-.114-.247-.228-.475-.342-.7l-6.786-12.413c-1.54-2.832-.19-4.733,2.984-4.239l13.972,2.167a12.493,12.493,0,0,0,9.79-3.365l9.695-10.284c2.205-2.338,4.429-1.654,4.942,1.521l1.768,10.873.492,3.079c.04.209.078.418.135.627a12.87,12.87,0,0,0,4.3,6.482,8.424,8.424,0,0,0,1.787,1.16l10.208,4.847,2.583,1.217C295.924,212.913,295.962,215.232,293.092,216.715Z" transform="translate(-229.725 -146.227)" fill="#fa7071"/>
      <path id="Path_8760" data-name="Path 8760" d="M290.12,198.967c-11.082,10.626-28.533,18.743-42.77,24.084l-13.61,2.547c-3.156.608-4.543-1.255-3.1-4.125l1.122-2.243c17.678-6.14,36.212-18.743,46.363-26.27a8.425,8.425,0,0,0,1.787,1.16Z" transform="translate(-229.415 -134.866)" fill="#fff" opacity="0.15"/>
      <path id="Path_8761" data-name="Path 8761" d="M270.459,191.307a139.855,139.855,0,0,1-35.813,16.88,11.577,11.577,0,0,0-.836-4.144A219.512,219.512,0,0,0,269.832,187.6Z" transform="translate(-226.044 -139.695)" fill="#fff" opacity="0.15"/>
      <path id="Path_8762" data-name="Path 8762" d="M250.574,201.807c4.281-3.281,7.309-.7,9.1.779.585.487,1.81,1.483,1.583,2.635-.211,1.076-1.992,2.682-2.595,3.492-1.1-.863-1.728-2.087-3.222-2.454a9.238,9.238,0,0,1-3.673-1.39Z" transform="translate(-210.942 -128.329)" fill="#ecb49f"/>
      <path id="Path_8763" data-name="Path 8763" d="M245.564,177.3s-5.5-1.557-7.634,32.03c-.547,8.609,7.123,9.092,13.255,11.934,4.11,1.9,8.263,3.222,12.5,4.967-.654-.268,2.12-4.425,2.306-4.954-5.345-3.268-12.293-4.389-16.694-9.151-3.722-4.03-2.116-12.917-.424-17.7C250.178,190.734,250.271,176.377,245.564,177.3Z" transform="translate(-222.358 -149.015)" fill="#9dafe2"/>
      <path id="Path_8764" data-name="Path 8764" d="M256.067,209.505c-1.038.447-4.984,2.23-4.707,3.482s3.541-1.061,2.688.679c-.977,1.992-3.644,2.96-4.5,5.288a4.141,4.141,0,0,0,3.019-1.3c-.787.833-1.937,1.922-1.979,3.129,1.175.317,1.781-.983,2.388-1.76-.152.62-1.061,3.254.194,3.167.686-.049,1.812-2.541,2.129-3.062Z" transform="translate(-211.863 -119.961)" fill="#ecb49f"/>
    </g>
    <g id="Group_269" data-name="Group 269" transform="translate(335.509 185.613)">
      <path id="Path_8765" data-name="Path 8765" d="M309.46,163.113a7.8,7.8,0,1,1-7.8-7.8A7.8,7.8,0,0,1,309.46,163.113Z" transform="translate(-254.862 -95.769)" fill="#fff" opacity="0.3"/>
      <path id="Path_8766" data-name="Path 8766" d="M285.045,176.039a5.85,5.85,0,1,1-5.849-5.851A5.852,5.852,0,0,1,285.045,176.039Z" transform="translate(-273.345 -82.369)" fill="#fff" opacity="0.6"/>
      <path id="Path_8767" data-name="Path 8767" d="M301.362,238.848s.622,43.3,2.515,46.931,11.223,6.2,11.7,5.427-4.039-3.9-5.159-5.921-2.505-2.644-2-7.951,5.57-47.667,5.57-47.667l-12.574,8.474Z" transform="translate(-248.104 -28.785)" fill="#f5b29c"/>
      <path id="Path_8768" data-name="Path 8768" d="M309.083,235.358s-6.3,43.991-8.039,46.009-8.172,6.288-10.478,5.564,3.091-4.52,4.427-6.41,2.781-2.355,2.857-7.682-1.65-35.619-1.65-35.619l12.92-2.574Z" transform="translate(-258.34 -24.298)" fill="#f5b29c"/>
      <path id="Path_8769" data-name="Path 8769" d="M296.614,172.693a10.051,10.051,0,0,0-2.817,7.066,9.163,9.163,0,0,0,.758,4.03c.506,1.165,1.671,2.351,1.931,3.515-1.669.118-3.087.144-4.477,1.507-4.4,4.33-4.61,14.548,1.6,17.241a4.561,4.561,0,0,0,3.4.236c-2.1-1.428-4.764,3.095-3.011,5.458,2.053,2.766,7.117,2.87,10.035,3.026,3.348.177,8.4.831,11.124-1.705,2.087-1.941,3.186-6.026,3.638-8.851.84,2.232,1.713,5.035,3.87,5.859,2.089.8,4.6-.593,5.773-2.608a6.547,6.547,0,0,0-.47-6.541c-.566-.863-3.918-5.473-4.851-5.062,4.186-1.851,4.2-7.056,3.34-11.894-2.57-14.468-20.294-21.672-29.679-11.462C296.728,172.569,296.667,172.632,296.614,172.693Z" transform="translate(-259.41 -84.591)" fill="#2e3054"/>
      <path id="Path_8770" data-name="Path 8770" d="M310.2,172.656c1.027,1.027.2,7.817.528,9.5.859,4.486,5.387,5.188,6.8,8.763.586,1.479-.209,3.8-.622,5.115-.931,2.954-2.823,7.22-6.119,8.041-1.762.439-4.383.422-6.32.681a12.378,12.378,0,0,1-7.313-.842c-4.568-2.272-5.68-7.123-4.005-11.713,1.186-3.249,3.119-3.032,5.416-5.015a11.175,11.175,0,0,0,3.385-8.784C301.706,173.907,307.7,170.158,310.2,172.656Z" transform="translate(-256.164 -80.867)" fill="#ecb49f"/>
      <path id="Path_8771" data-name="Path 8771" d="M306.48,177.734l-.163-3.931c-2.5-2.5-9.155-1.344-8.9,3.157,0,.032,0,.789,0,.817.834,1.4,2.878,4.691,4.224,4.5C304.5,181.87,305.552,180.338,306.48,177.734Z" transform="translate(-251.667 -80.28)" fill="#ecb49f" style="mix-blend-mode: multiply;isolation: isolate"/>
      <path id="Path_8772" data-name="Path 8772" d="M295.7,172.629s1.853,13.892,7.174,14.266,7.043-7.526,7.459-12.993c.468-6.115-.1-7.97-7.541-8.324C295.611,165.238,295.7,172.629,295.7,172.629Z" transform="translate(-253.205 -86.532)" fill="#ecb49f"/>
      <path id="Path_8773" data-name="Path 8773" d="M312.787,171.518c-.061.428-.173.9-.274,1.384,1.889-.04,1.846,3.009,1.226,4.085-.1.186-.795.757-.795.882,0,.386.751.346.65.964a1.757,1.757,0,0,1-2.194,1.243c-.673-.255-.53-1.034-.627-1.642a5.106,5.106,0,0,0-1.831-3.256c-.789-.772-2.2-1.848-2.31-2.983-1.456,2.6-4.633,3.032-7.313,2.429-.373,1.566-.086,2.418-1.637,3.334-1.5.886-1.758.112-2.988-.717a3.56,3.56,0,0,1,1.388-3.19c-1.825-1.764-.281-4.535,1.454-6.393a9.119,9.119,0,0,1,7.7-2.981,7.567,7.567,0,0,1,4.3,1.753c.783.77,1.62,1.245,1.713,2.971C312.773,169.587,312.944,170.421,312.787,171.518Z" transform="translate(-254.157 -87.359)" fill="#2e3054"/>
      <path id="Path_8774" data-name="Path 8774" d="M296.69,179.5l-1.161,1.156s2.03,2.572,7.824,2.7a12.456,12.456,0,0,0,8.833-2.956l-1.593-1.026S302.336,184.253,296.69,179.5Z" transform="translate(-253.359 -74.097)" fill="#fff"/>
      <path id="Path_8775" data-name="Path 8775" d="M292.773,188.324c-.1-.386-.964-1.736-1-2.118-.333-3.321-.278-5.649-.525-8.978-.257-3.484-.129-6.963-.468-10.432-.251-2.578-.036-5.024-.051-7.607-.008-1.718-.152-4.76-2.543-4.665a5.179,5.179,0,0,0-3.486,2.369c-1.156,2.154.627,4.959.922,7.088.77,5.549-.12,11.4-.327,17.019a38.638,38.638,0,0,0,1.08,9.159c.245.973,1.243.968,1.186,1.973,2.137-.363,3.249-2.42,5.484-2.247A6.82,6.82,0,0,0,292.773,188.324Z" transform="translate(-263.466 -96.483)" fill="#ecb49f"/>
      <path id="Path_8776" data-name="Path 8776" d="M309.441,190c-2.04-1.374-.918-5.169-.694-7.619a125.929,125.929,0,0,1,2.2-14.629,7.4,7.4,0,0,0,0-3.979c-.5-1.264-1.606-2.154-1.732-3.566-.08-.941-.066-3.359.61-4.051,1.806-1.833,3.648,2.34,3.988,3.422.639,2.059.317,4.355.525,6.463.3,3.009.221,16.42.295,20.212.023,1.158.34,2.37-.443,3.252a4.3,4.3,0,0,1-2.956,1.009A3.418,3.418,0,0,1,309.441,190Z" transform="translate(-241.91 -95.421)" fill="#ecb49f"/>
      <path id="Path_8777" data-name="Path 8777" d="M322.936,209.354c.578-2.028,1.654-3.956,2.2-5.938a22.9,22.9,0,0,0,.728-4.273c.382-4.368,2.087-8.21,4.157-12.025,1.066-1.971,5.7-14.051,5.7-14.051s-6.018-.076-7.244-1.053c-1.806,6.273-4.437,14.451-11.063,17.146-7.364,3-11.706-.585-16.42-6.031-1.77-2.049-3.494-4.138-5.34-6.117-1.6-1.72-2.792-3.728-4.4-5.419-.639.614-5.952,3.218-5.71,3.979,1.2,3.342,3.961,7.216,5.83,10.419,1.72,2.941,4.847,6.206,5.366,9.5.287,1.853-.179,3.895.188,5.659a26.636,26.636,0,0,0,2.062,5.011c.726,1.616,1.935,3.654,2.232,5.361a8.736,8.736,0,0,1-.015,4.363c-.3,1.224-.483,2.861-.755,4.089-.348,1.578-2.089,3.2-.112,3.473,3.981.561,8.06.836,12.073,1.114,2.964.205,6,.933,8.978.468,1.268-.2,3.3.945,3.218-.367a47.076,47.076,0,0,0-1.141-4.874C322.568,216.762,322.05,212.47,322.936,209.354Z" transform="translate(-262.366 -81.105)" fill="#2a2b7c"/>
      <path id="Path_8778" data-name="Path 8778" d="M303.582,197.044s-16.16,36.446-20.533,53.6,6.735,21.887,12.793,22.227,16.827,9.265,27.255,1.032,16.262.12,23.326-5.708,3.144-20.15-3.251-32.5-16.249-38.351-16.249-38.351S311.321,199.447,303.582,197.044Z" transform="translate(-265.5 -58.175)" fill="#7ab6f6"/>
      <path id="Path_8779" data-name="Path 8779" d="M292.446,262.633c-1.722,1.65-3.336,3.332-1.88,3.792,2.306.724,8.74-3.551,10.478-5.564a12.769,12.769,0,0,0,1.053-3.452C297.311,263.338,293.053,262.752,292.446,262.633Z" transform="translate(-258.34 -3.792)" fill="#2e3054"/>
      <path id="Path_8780" data-name="Path 8780" d="M314.643,265.733c.26-.43-1.006-1.572-2.378-2.859-1.435.141-5.372-.023-9.871-4.931a9.072,9.072,0,0,0,.553,2.363C304.839,263.931,314.17,266.5,314.643,265.733Z" transform="translate(-247.175 -3.311)" fill="#2e3054"/>
      <path id="Path_8781" data-name="Path 8781" d="M352.828,158.8l-12.337,9.067a12.908,12.908,0,0,0-3.9,5.285,12.12,12.12,0,0,0-1.007,4.79l.475,15.283c.114,3.479-2.11,4.657-4.942,2.642l-12.432-8.934a13.47,13.47,0,0,0-7.946-2.11,10.821,10.821,0,0,0-3.137.551l-14.409,5.17c-3.27,1.179-5.075-.57-4.011-3.878l2.775-8.725,1.882-5.855a13.837,13.837,0,0,0-1.045-9.562,8.778,8.778,0,0,0-.912-1.464l-3.27-4.22-6.1-7.87c-2.129-2.756-1.027-5.018,2.452-5.037l15.3-.076a13.544,13.544,0,0,0,9.885-5.266l8.611-12.66c1.958-2.87,4.448-2.509,5.532.779l4.315,13.04.494,1.5a12.393,12.393,0,0,0,3.479,5.018,11.971,11.971,0,0,0,4.581,2.756l5,1.464,9.695,2.813C355.2,154.272,355.642,156.743,352.828,158.8Z" transform="translate(-266.062 -123.99)" fill="#fa7071"/>
      <path id="Path_8782" data-name="Path 8782" d="M349.3,146.237,336.96,155.3a12.907,12.907,0,0,0-3.9,5.285,184.038,184.038,0,0,1-25.852,11.672,10.822,10.822,0,0,0-3.136.551l-14.409,5.17c-3.27,1.179-5.075-.57-4.011-3.878l2.775-8.725c20.625-6.368,41.953-21.29,50.2-27.449l9.695,2.813C351.673,141.713,352.11,144.184,349.3,146.237Z" transform="translate(-262.53 -111.431)" fill="#fff" opacity="0.15"/>
      <path id="Path_8783" data-name="Path 8783" d="M289.392,155.053c14.939-3.117,28.59-9.5,39.786-16.253l-3.973-6.52a271.338,271.338,0,0,1-39.995,17.089Z" transform="translate(-262.656 -116.521)" fill="#fff" opacity="0.15"/>
      <path id="Path_8784" data-name="Path 8784" d="M285.2,159.28a4.909,4.909,0,0,0,2.089,2.646c.167-1.07-.622-1.705-.969-2.608a10.726,10.726,0,0,0,1.855,1.945c.188-1-.878-2.144-1.184-3.078.836.633,1.31,2.159,2.513,2.186.065-1.095-1.409-2.247-1.933-3.2.835.4,1.274,1.3,2.264,1.321.11-1.182-2.218-3.3-2.984-3.859Z" transform="translate(-262.668 -96.387)" fill="#ecb49f"/>
      <path id="Path_8785" data-name="Path 8785" d="M313.035,159.222c.144.4.279,2.038-.215,2.4-.388.285-1.72-.006-2.273.137-.808.215-2.285.793-2.355.137s2.709-1.063,2.68-1.386-2.914.9-2.967.188,3.657-1.369,3.545-1.564-3.713.758-3.412-.281,3.469-1.3,3.357-1.234-3.572.635-3.642-.276,4.034-1.492,4.893-1.331Z" transform="translate(-242.348 -95.164)" fill="#ecb49f"/>
    </g>
    <g id="Group_271" data-name="Group 271" transform="translate(428.112 199.303)">
      <g id="Group_270" data-name="Group 270" transform="translate(0 68.669)">
        <path id="Path_8786" data-name="Path 8786" d="M333.24,257.909c-.2,3.7-5.551,5.254-7.208,8.14,1.72.77,7.752.424,9.43-.852,2.312-1.753.589-6.18,3.262-8.718Z" transform="translate(-318.482 -86.988)" fill="#2e3054"/>
        <path id="Path_8787" data-name="Path 8787" d="M350.372,258.1c.179,2.872-.724,5.688-.574,8.655,3.975.6,7.315,1.462,11.4,1.228-.95-2.709-3.051-3.218-5.237-4.84-3.524-2.606-1.844-4.418-3.108-8.151Z" transform="translate(-297.086 -88.331)" fill="#2e3054"/>
        <path id="Path_8788" data-name="Path 8788" d="M353.355,177.314s.418,9.695,1.544,11.561c1.464,2.427,4.536.983,5.224,4.091.432,1.939-.747,4.566-1.775,6.155-3.121,4.823-8.706,4.178-13.839,5.073-2.933.511-6.111-.8-7.066-3.857-.755-2.418-.057-6.608,1.646-8.577,1.026-1.192,2.916-1.488,4.085-2.557.015-.015,3.152-2.893,2.931-6.836S351.159,175.119,353.355,177.314Z" transform="translate(-308.475 -158.942)" fill="#ad704d"/>
        <path id="Path_8789" data-name="Path 8789" d="M344.949,186.935a4.9,4.9,0,0,0,4.8-3c-.355-3.176-.506-6.619-.506-6.619-2.2-2.2-7.471,1.1-7.25,5.054a7.437,7.437,0,0,1-.3,2.5A4.189,4.189,0,0,0,344.949,186.935Z" transform="translate(-304.368 -158.942)" fill="#ecb49f" style="mix-blend-mode: multiply;isolation: isolate"/>
        <path id="Path_8790" data-name="Path 8790" d="M339.2,176.868s.692,14.785,6.963,15.028,7.007-7.8,7.417-13.662c.458-6.558-.1-8.546-7.417-8.927C339.111,168.943,339.2,176.868,339.2,176.868Z" transform="translate(-306.615 -165.533)" fill="#ad704d"/>
        <path id="Path_8791" data-name="Path 8791" d="M341.227,178.441a6.513,6.513,0,0,0,6.307-.086S344.527,184.7,341.227,178.441Z" transform="translate(-304.793 -157.371)" fill="#fff"/>
        <path id="Path_8792" data-name="Path 8792" d="M341.793,200.443c-.238.528.3,1.1.163,1.471-.762,2.119-2.338,4.307-3,6.476-1.059,3.486-2.3,7.233-3.688,10.586a28.853,28.853,0,0,0-2.007,7.693c-.173,1.266.156,4.363-.7,5.207-.73-.352-.656-4.553-1.812-1.6-.886,2.247-2.494,6.324-3.306,6.317s1.034-3.558.49-4.009-2.625,4.2-3.188,3.887,1.812-4.252,1.293-4.6c-.884-.6-1.791,2.714-2.486,2.435s.988-2.595,1.087-3.885c-1.194-.1-2.005,2.811-2.528,1.64s2.983-4,3.855-5.408a19.839,19.839,0,0,0,2.857-8.6,73.73,73.73,0,0,1,3.4-15.048c1.1-3.463,3.279-6.864,4.638-10.113,1.452-.059,5.239,1.277,6.087,2.587C343.593,196.478,342.565,198.733,341.793,200.443Z" transform="translate(-322.06 -144.274)" fill="#ad704d"/>
        <path id="Path_8793" data-name="Path 8793" d="M339.916,183.65l-10.78,27.632-4.1,18.37,6.53,2.733,8.653-23.077,4.556-18.37S342.954,182.284,339.916,183.65Z" transform="translate(-319.378 -152.732)" fill="#fff"/>
        <path id="Path_8794" data-name="Path 8794" d="M358.568,227.139a25.926,25.926,0,0,1,4.167-1.093c1.118-.08,1.9.513,2.644-.087a1.751,1.751,0,0,0,.217-.213c.684-.793.508-3.76.608-4.745.336-3.237.644-6.473.987-9.706a52.664,52.664,0,0,1,1.688-7.864c1.644-6.455,3.336-11.89-.527-17.819-1.462-2.241-2.3-2.783-4.783-2.773-.241,0-5.182,1.108-5.11.772-.028.127-1.005,4.52-5.131,5.127-4.186.614-6.98-1.559-5.706-4.939a41.526,41.526,0,0,0-7.809-1.823c-2.614-.4-5.083.3-6.52,2.675-2.268,3.737,1.179,7.282,1.806,11.052.852,5.1,2,10.455,2.547,15.593.34,3.233.914,7.273,1.251,10.508.1.988-.346,3.15.342,3.942a2.248,2.248,0,0,0,.215.213c.745.6,1.528.008,2.646.087a25.922,25.922,0,0,1,4.167,1.093Z" transform="translate(-312.628 -154.205)" fill="#fff"/>
        <path id="Path_8795" data-name="Path 8795" d="M343.685,169.447a3.314,3.314,0,0,1-.964,1.019c-.308.171-.943-.116-1.3.029a5.624,5.624,0,0,0-2.4,1.251c-4.549,4.933,1.283,10.354,6.522,9.784,2.433-.264,4.155-2.581,6.644-2.551,0,2.308,1.559,4.058,4.032,3.45,6.286-1.555,3.148-11.62-.863-13.766-2.53-1.352-8.63-2.114-10.877-.175A5.22,5.22,0,0,0,343.685,169.447Z" transform="translate(-308.254 -167.316)" fill="#2e3054"/>
        <path id="Path_8796" data-name="Path 8796" d="M362.592,202.3c-1.294.374-2.783.6-4.066.861-2.043.416-4.1.741-6.17,1.008a50.893,50.893,0,0,1-8.8.449,31.364,31.364,0,0,1-7.79-1.669c-.112,1.095.251,2.471.226,3.652,1.823.034,3.562.7,5.366.956a54.176,54.176,0,0,0,7.575.576c3.4.008,6.691-.973,9.955-1.815,1.028-.264,3.38-.329,4.165-1.055.561-.517,0-3.1.188-3.169C363.029,202.161,362.812,202.23,362.592,202.3Z" transform="translate(-309.736 -135.989)" fill="#2e3054"/>
        <path id="Path_8797" data-name="Path 8797" d="M342.6,203.656,328.773,306.721l6.8.243,21.134-69.227,10.687,70.7,6.317-.492s.485-46.808.241-61.344.489-34.737-5.1-43.36C368.852,203.245,350.354,208.5,342.6,203.656Z" transform="translate(-316.013 -134.948)" fill="#2a2b7c"/>
        <path id="Path_8798" data-name="Path 8798" d="M341.057,183.2s-.574,4.349,3.617,4.467,6.522-3.144,7.454-5.125l1.165.234s-2.1,6.638-8.385,6.17-5.125-4.539-4.777-5.937Z" transform="translate(-306.062 -153.603)" fill="#2e3054"/>
      </g>
      <path id="Path_8799" data-name="Path 8799" d="M359.36,166.095a15.394,15.394,0,0,1,1.658-4.477c.661-1.443.857-3.169,1.673-4.509a27.866,27.866,0,0,1-.515,4.37c1.663-.9,2.46-3.711,2.933-5.362.253,1.513-.595,4.241-1.19,5.691a9.091,9.091,0,0,0,2.357-3.629c-.327,4.385-3.882,8.316-3.427,13.015Z" transform="translate(-288.457 -108.736)" fill="#ad704d"/>
      <path id="Path_8800" data-name="Path 8800" d="M405.278,180.992l-15.188.931a13.443,13.443,0,0,0-9.5,5.8l-7.851,13.04c-1.768,2.965-4.277,2.756-5.551-.456l-4.45-11.291-1.139-2.87a13.434,13.434,0,0,0-8.44-7.261l-.1-.019-14.732-3.4c-3.365-.779-3.935-3.213-1.274-5.418l3.193-2.642,8.535-7.052a11.239,11.239,0,0,0,2.545-3.174,13.152,13.152,0,0,0,1.751-7.09l-1.331-15.15c-.285-3.46,1.844-4.752,4.771-2.889L369.35,140.2a13.368,13.368,0,0,0,11.1.912l14.01-5.95a5.957,5.957,0,0,1,1.312-.4c2.357-.437,3.631,1.179,2.908,4.03l-.76,2.984-3.041,11.767a7.347,7.347,0,0,0-.171.969,13.586,13.586,0,0,0,2.737,9.866l4.125,4.752,5.855,6.729C409.707,178.464,408.737,180.783,405.278,180.992Z" transform="translate(-310.062 -131.192)" fill="#fa7071"/>
      <path id="Path_8801" data-name="Path 8801" d="M393.191,158.078c-11.348,8.687-26.5,15.378-38.837,19.883l-1.139-2.87a13.434,13.434,0,0,0-8.44-7.261l-.1-.019c17.678-7.223,34.482-19.009,41.649-24.351a13.586,13.586,0,0,0,2.737,9.866Z" transform="translate(-301.682 -120.139)" fill="#fff" opacity="0.15"/>
      <path id="Path_8802" data-name="Path 8802" d="M396.374,137.133l-.76,2.984c-13.706,10.018-34.33,22.088-57.673,25.624l8.535-7.052a11.239,11.239,0,0,0,2.545-3.174c14.3-5.437,31.139-13,44.445-22.412C395.822,132.666,397.1,134.282,396.374,137.133Z" transform="translate(-307.754 -129.533)" fill="#fff" opacity="0.15"/>
      <path id="Path_8803" data-name="Path 8803" d="M358.973,171.73c-.711-1.218-.112-4.258-.411-5.9-.357-1.985-1.007-3.9-.437-5.961a9.488,9.488,0,0,0,1.715,2.669c1.477.606,3.066-1.673,4.351-.262.722.791.3,1.872.127,2.815a23.337,23.337,0,0,0-.338,4.338c-.006,1.555-.291,3.078-.3,4.674Z" transform="translate(-289.773 -105.359)" fill="#ad704d"/>
      <path id="Path_8804" data-name="Path 8804" d="M348.361,202.986c-.135,3.175-.122,11.366,2.964,11.493,1.028.042,3.391-5.585,4.878-6.227,5.946-2.58,13.536-8.776,16.1-14.833s1.544-28.131,1.544-28.131l-7.1.249-3.154,24.571s-8.7,6.921-12.392,8.332S348.435,201.288,348.361,202.986Z" transform="translate(-298.412 -100.475)" fill="#fff"/>
    </g>
    <g id="Group_272" data-name="Group 272" transform="translate(591.902 194.02)">
      <path id="Path_8805" data-name="Path 8805" d="M441.562,179.06s.422,9.776,1.559,11.66c1.477,2.452,4.575.994,5.267,4.127.435,1.96-.753,4.608-1.789,6.208-3.146,4.868-8.784,4.22-13.964,5.121-2.958.517-6.163-.8-7.127-3.893-.758-2.439-.055-6.665,1.661-8.653,1.036-1.2,2.943-1.5,4.121-2.578.017-.015,3.178-2.918,2.96-6.895C434.029,180.166,439.346,176.843,441.562,179.06Z" transform="translate(-392.927 -83.424)" fill="#ecb49f"/>
      <path id="Path_8806" data-name="Path 8806" d="M438.845,184.618l-.186-3.963c-2.79-2.524-9.487,1.26-9.21,5.8a4.587,4.587,0,0,0,3.646,2.521C436.083,189.1,437.809,187.249,438.845,184.618Z" transform="translate(-389.111 -82.076)" fill="#ecb49f" style="mix-blend-mode: multiply;isolation: isolate"/>
      <path id="Path_8807" data-name="Path 8807" d="M428.1,179.068s.625,13.333,6.282,13.552,6.317-7.033,6.687-12.318c.413-5.916-.086-7.708-6.687-8.048C428.021,171.923,428.1,179.068,428.1,179.068Z" transform="translate(-390.318 -88.926)" fill="#ecb49f"/>
      <path id="Path_8808" data-name="Path 8808" d="M443.238,177.607c-.055.384-.154.8-.243,1.234,1.677-.04,1.633,2.663,1.087,3.619-.093.162-.705.667-.705.781-.006.344.665.306.578.854a1.557,1.557,0,0,1-1.947,1.1c-.6-.224-.471-.916-.555-1.45a4.519,4.519,0,0,0-1.623-2.891c-.7-.682-1.95-1.637-2.045-2.642-1.293,2.3-4.106,2.688-6.48,2.156-.336,1.386-.08,2.142-1.454,2.954-1.327.783-1.557.1-2.65-.637-.253-1.118,1.313-1.317,1.952-1.806-1.618-1.564-.971-5.041.566-6.687a8.082,8.082,0,0,1,6.826-2.642,6.728,6.728,0,0,1,3.809,1.553,3.383,3.383,0,0,1,1.519,2.633C443.223,175.9,443.377,176.638,443.238,177.607Z" transform="translate(-391.154 -89.573)" fill="#2e3054"/>
      <path id="Path_8809" data-name="Path 8809" d="M434.094,180.379s-2.992-1.494-5.486-.333c0,0-1,8.478,5.486,8.478,7.48,0,5.817-8.643,5.817-8.643A7.993,7.993,0,0,0,434.094,180.379Z" transform="translate(-389.911 -82.337)" fill="#2e3054"/>
      <path id="Path_8810" data-name="Path 8810" d="M429.925,180.491a5.876,5.876,0,0,0,5.689-.08S432.9,186.133,429.925,180.491Z" transform="translate(-388.675 -81.567)" fill="#fff"/>
      <path id="Path_8811" data-name="Path 8811" d="M424.83,170.419a17.252,17.252,0,0,0,.688-3.268c.295-2.374.4-4.876,1.806-6.914.327-.479,1.142-1.5.1-1.7-.146-.029-.916.629-1.129.715a8.17,8.17,0,0,1-1.064.226,5.05,5.05,0,0,1,.561-.9,10.731,10.731,0,0,0,.673-1.654c.184-.479.736-1.26.428-1.743a4.991,4.991,0,0,0-1.076.751c.025-.4.175-1.985-.108-2.272-.884-.89-1.441,1.872-2.116,1.654-.777-.253.8-2.682-.751-1.964-1,.462-.9,2.042-1.832,2.58-.137-.293,0-1.053-.5-1.116-.424-.059-.582.677-.667.985-.112.4-.544,5.292-.616,6.638-.116,2.026-.57,4.2-.865,6.248-.118.817-.675,2.293-.509,3.04.192.865,1.281,1.374,2.538,1.726,1.443.4,3.11.6,3.923.886.35-1.218-.023-2.408.4-3.591C424.756,170.636,424.792,170.527,424.83,170.419Z" transform="translate(-399.574 -106.065)" fill="#e7a588"/>
      <path id="Path_8812" data-name="Path 8812" d="M447.164,173.887c1.116-.063,2.116-.295,2.429-1a10.59,10.59,0,0,0,.108-2.7c.175-2.859,1.871-15.278-3.686-15.015-.335,1.386.07,3.545-.684,4.779-.452.741-2.838,1.334-2.515.447-.251,1.207.633,2.842.827,4.051a18.093,18.093,0,0,1,.1,3.469c-.027.981.369,1.781.432,2.76.084,1.312-.555,1.9-.458,3.232C444.448,173.815,445.881,173.963,447.164,173.887Z" transform="translate(-377.1 -104.309)" fill="#e7a588"/>
      <path id="Path_8813" data-name="Path 8813" d="M440.8,258.875v8.455s9.734,3.943,15.458,1.692-8.588-2.256-6.872-9.582S440.8,258.875,440.8,258.875Z" transform="translate(-378.876 -13.44)" fill="#0b1238"/>
      <path id="Path_8814" data-name="Path 8814" d="M430.632,257.664v8.453s-9.735,3.943-15.458,1.688,8.588-2.253,6.872-9.582S430.632,257.664,430.632,257.664Z" transform="translate(-403.189 -14.533)" fill="#0b1238"/>
      <path id="Path_8815" data-name="Path 8815" d="M442.492,249.154a38.166,38.166,0,0,0,8.41-1.255,28.359,28.359,0,0,1,4.207-.969c1.129-.072,1.92.454,2.671-.08a1.763,1.763,0,0,0,.221-.188c.489-.5.848-3.256.966-4.009.836-5.256,1.342-10.586,1.861-15.869.357-3.627-.508-5.049,2.281-10.048s10.155-22.583,10.63-27.573-.238-27.325-.238-27.325l-3.8-.475-3.8.238s.475,24-1.426,28.989-4.2,17.777-7.252,16.365a7.2,7.2,0,0,0-5.169-.627c.312,2.2-3.914,5.969-6.735,5.805h.323c-2.823.163-7.049-3.61-6.735-5.805a5.111,5.111,0,0,1-5.646-1.511c-2.528-2.821-6.805-15.652-7.756-19.691s.477-22.811.477-22.811l-6.655-1.188s-4.99,17.583-.95,27.8c3.163,8,9.225,27.827,10.217,29.148,2.317,3.095,1.177,5.083,1.534,8.71.519,5.283,1.026,10.613,1.859,15.869.12.753.479,3.511.969,4.009a1.751,1.751,0,0,0,.219.188c.755.534,1.542.008,2.671.08a28.308,28.308,0,0,1,4.207.969,38.165,38.165,0,0,0,8.408,1.255Z" transform="translate(-400.504 -98.941)" fill="#7ab6f6"/>
      <path id="Path_8816" data-name="Path 8816" d="M431.211,205.564c0,9.343-14.183,85.6-13.688,101.611,3.849.838,8.181,0,11.765,1.4-.034-5.134,9.425-69.957,14.47-73.63,1.158,1.893,15.162,66.2,17.315,73.552,1.028-.222,11.318.186,11.326.078.606-6.99-12.78-96.737-15.8-103.3Z" transform="translate(-399.859 -59.174)" fill="#2e3054"/>
      <path id="Path_8817" data-name="Path 8817" d="M475.09,185.074l-14.96-1.483a13.26,13.26,0,0,0-10.189,4.125L440.246,199.2c-2.205,2.6-4.6,2.015-5.342-1.331l-2.984-13.705-.209-.969a13.378,13.378,0,0,0-5.037-7.223,9.817,9.817,0,0,0-2.053-1.179l-13.915-5.684a5.017,5.017,0,0,1-1.9-1.274,2.184,2.184,0,0,1,.1-3.06,5.677,5.677,0,0,1,1.426-1.141l12.964-7.6a13.216,13.216,0,0,0,5.817-9.314l1.084-15c.266-3.4,2.547-4.334,5.094-2.053l11.234,9.98a13.209,13.209,0,0,0,10.664,2.642l4.334-1.065c.017,0,7.946-1.939,7.946-1.939l2.319-.57c3.308-.817,4.9,1.065,3.534,4.2l-.283.646-5.741,13.116a13.028,13.028,0,0,0-.475,7.813,10.828,10.828,0,0,0,1.255,3.136l7.908,12.774C479.785,183.306,478.473,185.4,475.09,185.074Z" transform="translate(-408.225 -128.412)" fill="#fa7071"/>
      <path id="Path_8818" data-name="Path 8818" d="M460.548,149.5a13.028,13.028,0,0,0-.475,7.813c-10.531,8.4-24.75,15.017-36.9,19.674l-.209-.969a13.378,13.378,0,0,0-5.037-7.223c22.165-10.626,42.428-27.43,42.428-27.43s2.718-2.471,5.931-4.98Z" transform="translate(-399.481 -121.234)" fill="#fff" opacity="0.15"/>
      <path id="Path_8819" data-name="Path 8819" d="M469.463,134.13c-13.306,10.322-35.319,24.408-60.658,28.552a2.183,2.183,0,0,1,.1-3.06c15.112-4.866,36.155-12.812,52.617-23.552C461.534,136.069,469.463,134.13,469.463,134.13Z" transform="translate(-408.225 -123.261)" fill="#fff" opacity="0.15"/>
      <path id="Path_8820" data-name="Path 8820" d="M446.238,154.216c-1.391-.141-3.756.6-3.777,1.129s2.513-.137,2.671.675-3.667.861-3.616,1.707,3.96.228,4.222.576-2.836.426-2.553,1.336,3.756-.509,4.117.124-2.422.722-2.216,1.39,3.133-.6,4.117,1.355c.848-.477.947-1.063,1.074-2.114a27.105,27.105,0,0,0-1.2-3.636C448.061,154.059,446.238,154.216,446.238,154.216Z" transform="translate(-378.233 -105.181)" fill="#e7a588"/>
      <path id="Path_8821" data-name="Path 8821" d="M420.334,160.138c2.139-1.9,2.76-7.353,3.484-2.139.43,3.081-2.032,4.709-1.741,7.446Z" transform="translate(-397.315 -103.737)" fill="#e7a588"/>
    </g>
    <path id="Path_8822" data-name="Path 8822" d="M298.259,174.491a5.876,5.876,0,0,0,5.689-.08S301.236,180.133,298.259,174.491Z" transform="translate(84.609 107.048)" fill="#fff"/>
    <path id="Path_8823" data-name="Path 8823" d="M385.925,180.323a5.879,5.879,0,0,0,5.689-.078S388.9,185.965,385.925,180.323Z" transform="translate(163.587 112.304)" fill="#fff"/>
    <g id="Group_273" data-name="Group 273" transform="translate(534.26 67.213)">
      <path id="Path_8824" data-name="Path 8824" d="M390.2,63.445l-.631.6a.764.764,0,0,0-.182.327.79.79,0,0,0-.021.279l.139.859c.032.2-.087.279-.262.184l-.766-.414a.771.771,0,0,0-.464-.061.577.577,0,0,0-.173.053l-.777.4c-.175.089-.291,0-.255-.192l.093-.511.065-.344a.8.8,0,0,0-.127-.534.505.505,0,0,0-.065-.076l-.213-.215-.4-.4c-.139-.141-.093-.278.1-.3l.865-.114a.764.764,0,0,0,.519-.369l.4-.777c.089-.177.234-.175.317,0l.338.705a.8.8,0,0,0,.272.34.679.679,0,0,0,.279.122l.295.048.565.087C390.3,63.174,390.34,63.308,390.2,63.445Z" transform="translate(-370.54 -61.704)" fill="#fff"/>
      <path id="Path_8825" data-name="Path 8825" d="M392.881,63.445l-.633.6a.743.743,0,0,0-.181.327.718.718,0,0,0-.025.279l.141.859c.03.2-.088.279-.26.184l-.766-.414a.787.787,0,0,0-.468-.061.583.583,0,0,0-.171.053l-.779.4c-.173.089-.289,0-.253-.192l.093-.511.065-.344a.8.8,0,0,0-.129-.534.4.4,0,0,0-.063-.076l-.213-.215-.4-.4c-.141-.141-.1-.278.1-.3l.865-.114a.773.773,0,0,0,.519-.369l.4-.777c.089-.177.232-.175.318,0l.34.705a.779.779,0,0,0,.27.34.668.668,0,0,0,.279.122l.293.048.568.087C392.98,63.174,393.024,63.308,392.881,63.445Z" transform="translate(-368.122 -61.704)" fill="#fff"/>
      <path id="Path_8826" data-name="Path 8826" d="M387.513,63.445l-.633.6a.761.761,0,0,0-.181.327.677.677,0,0,0-.023.279l.137.859c.032.2-.086.279-.259.184l-.768-.414a.775.775,0,0,0-.466-.061.634.634,0,0,0-.173.053l-.776.4c-.177.089-.289,0-.257-.192l.1-.511.063-.344a.792.792,0,0,0-.125-.534.509.509,0,0,0-.065-.076l-.213-.215-.4-.4c-.143-.141-.1-.278.1-.3l.863-.114a.768.768,0,0,0,.521-.369l.4-.777c.089-.177.234-.175.319,0l.338.705a.78.78,0,0,0,.27.34.68.68,0,0,0,.279.122l.293.048.568.087C387.612,63.174,387.656,63.308,387.513,63.445Z" transform="translate(-372.958 -61.704)" fill="#fff"/>
      <path id="Path_8827" data-name="Path 8827" d="M384.769,63.445l-.633.6a.72.72,0,0,0-.179.327.682.682,0,0,0-.023.279l.137.859c.032.2-.087.279-.26.184l-.766-.414a.779.779,0,0,0-.466-.061.634.634,0,0,0-.173.053l-.777.4c-.175.089-.289,0-.255-.192l.1-.511.063-.344a.791.791,0,0,0-.125-.534.652.652,0,0,0-.065-.076l-.215-.215-.4-.4c-.141-.141-.093-.278.1-.3l.863-.114a.772.772,0,0,0,.521-.369l.4-.777c.089-.177.232-.175.317,0l.338.705a.769.769,0,0,0,.272.34.672.672,0,0,0,.277.122l.295.048.568.087C384.869,63.174,384.913,63.308,384.769,63.445Z" transform="translate(-375.43 -61.704)" fill="#fff"/>
      <path id="Path_8828" data-name="Path 8828" d="M382.026,63.445l-.633.6a.742.742,0,0,0-.181.327.753.753,0,0,0-.023.279l.139.859c.032.2-.087.279-.262.184l-.764-.414a.779.779,0,0,0-.466-.061.578.578,0,0,0-.173.053l-.777.4c-.175.089-.289,0-.255-.192l.1-.511.063-.344a.793.793,0,0,0-.127-.534.5.5,0,0,0-.063-.076l-.215-.215-.4-.4c-.141-.141-.095-.278.1-.3l.863-.114a.772.772,0,0,0,.521-.369l.4-.777c.087-.177.232-.175.318,0l.338.705a.769.769,0,0,0,.272.34.662.662,0,0,0,.277.122l.295.048.566.087C382.127,63.174,382.168,63.308,382.026,63.445Z" transform="translate(-377.901 -61.704)" fill="#fff"/>
      <path id="Path_8829" data-name="Path 8829" d="M392.172,67.136l-2.95-1.589V63.306a.678.678,0,1,0-1.355,0s.015,5.129.034,5.191l-.274-.144a1.454,1.454,0,0,0-2,.665l-.046.1,3.23,1.715,2.313-.042a1.149,1.149,0,0,0,1.125-1.184Z" transform="translate(-370.979 -60.872)" fill="#a8bcff"/>
    </g>
    <path id="Path_8830" data-name="Path 8830" d="M330.532,141.811,321.438,117.9H325.8a1.918,1.918,0,0,0,1.912-1.92V84.016A1.916,1.916,0,0,0,325.8,82.1H287.119a1.918,1.918,0,0,0-1.92,1.918v31.967a1.919,1.919,0,0,0,1.92,1.92h27.263Z" transform="translate(72.843 23.883)" fill="#fff" opacity="0.5"/>
    <rect id="Rectangle_1099" data-name="Rectangle 1099" width="26.615" height="1.583" transform="translate(365.583 119.735)" fill="#fff"/>
    <rect id="Rectangle_1100" data-name="Rectangle 1100" width="26.615" height="1.583" transform="translate(365.583 124.646)" fill="#fff"/>
    <rect id="Rectangle_1101" data-name="Rectangle 1101" width="26.615" height="1.583" transform="translate(365.583 129.557)" fill="#fff"/>
    <g id="Group_276" data-name="Group 276" transform="translate(492.352 112.651)">
      <g id="Group_274" data-name="Group 274" transform="translate(0 3.189)">
        <path id="Path_8831" data-name="Path 8831" d="M364.413,104.4a8.558,8.558,0,1,1,1.9-16.9.643.643,0,1,1-.283,1.255,7.257,7.257,0,1,0,5.408,5.193.642.642,0,1,1,1.239-.335,8.563,8.563,0,0,1-8.265,10.79Z" transform="translate(-355.855 -87.285)" fill="#fa9a95"/>
      </g>
      <g id="Group_275" data-name="Group 275" transform="translate(3.15)">
        <path id="Path_8832" data-name="Path 8832" d="M362.823,99.2a.643.643,0,0,1-.433-.165l-4.667-4.224a.643.643,0,0,1,.863-.952l4.188,3.789,10.592-11.824a.642.642,0,1,1,.956.857L363.3,98.986a.648.648,0,0,1-.447.213Z" transform="translate(-357.512 -85.607)" fill="#fa9a95"/>
      </g>
    </g>
    <g id="Group_277" data-name="Group 277" transform="translate(551.967 102.289)">
      <path id="Path_8833" data-name="Path 8833" d="M397.16,80.348v2.441h-6.727v3.923a4.683,4.683,0,0,1,2.279-.547,5.845,5.845,0,0,1,3.857,1.346,4.5,4.5,0,0,1,1.62,3.65,4.924,4.924,0,0,1-1.688,3.821,5.989,5.989,0,0,1-4.152,1.517,6.539,6.539,0,0,1-5.132-2.144l1.437-1.962a6.224,6.224,0,0,0,.489.433,6.465,6.465,0,0,0,1.266.673,5.164,5.164,0,0,0,2.1.422,3.434,3.434,0,0,0,2.076-.684,2.319,2.319,0,0,0,.935-2,2.356,2.356,0,0,0-.994-2.03,4.163,4.163,0,0,0-2.507-.719,5.892,5.892,0,0,0-2.886.753l-1.142-1.232V80.348Z" transform="translate(-387.216 -79.983)" fill="#fff"/>
      <path id="Path_8834" data-name="Path 8834" d="M394.846,89.953a1.667,1.667,0,0,1-.49-1.209,1.675,1.675,0,0,1,1.69-1.688,1.666,1.666,0,0,1,1.207.49,1.612,1.612,0,0,1,.5,1.2,1.717,1.717,0,0,1-1.711,1.711A1.615,1.615,0,0,1,394.846,89.953Z" transform="translate(-380.785 -73.94)" fill="#fff"/>
      <path id="Path_8835" data-name="Path 8835" d="M399.12,94.424a10.059,10.059,0,0,1-1.62-6.011,10.059,10.059,0,0,1,1.62-6.011,6.426,6.426,0,0,1,9.763,0,10.058,10.058,0,0,1,1.62,6.011,10.058,10.058,0,0,1-1.62,6.011,6.426,6.426,0,0,1-9.763,0ZM401.047,84.1a10.291,10.291,0,0,0,0,8.622A3.169,3.169,0,0,0,404,94.367a3.123,3.123,0,0,0,2.931-1.631,10.6,10.6,0,0,0,0-8.645A3.123,3.123,0,0,0,404,82.46,3.169,3.169,0,0,0,401.047,84.1Z" transform="translate(-377.951 -80.156)" fill="#fff"/>
    </g>
  </g>
</svg>
